<svg width="19" height="19" viewBox="0 0 19 19" fill="none" xmlns="http://www.w3.org/2000/svg">
<path d="M9.50016 12.6668C11.2491 12.6668 12.6668 11.2491 12.6668 9.50016C12.6668 7.75126 11.2491 6.3335 9.50016 6.3335C7.75126 6.3335 6.3335 7.75126 6.3335 9.50016C6.3335 11.2491 7.75126 12.6668 9.50016 12.6668Z" stroke="white" stroke-width="1.1875" stroke-linecap="round" stroke-linejoin="round"/>
<path d="M2.375 12.6667V6.33333C2.375 4.14721 4.14721 2.375 6.33333 2.375H12.6667C14.8528 2.375 16.625 4.14721 16.625 6.33333V12.6667C16.625 14.8528 14.8528 16.625 12.6667 16.625H6.33333C4.14721 16.625 2.375 14.8528 2.375 12.6667Z" stroke="white" stroke-width="1.1875"/>
<path d="M13.854 5.15655L13.8646 5.14482" stroke="white" stroke-width="1.1875" stroke-linecap="round" stroke-linejoin="round"/>
</svg>
