<svg width="70" height="57" viewBox="0 0 70 57" fill="none" xmlns="http://www.w3.org/2000/svg">
<path d="M31.7093 6.91912L19.3898 29.8704L11.6269 32.0642C12.527 30.3766 13.5395 29.0266 14.6646 28.014C15.7897 26.8889 17.0835 26.3264 18.546 26.3264C21.8087 26.3264 24.7339 27.6765 27.3215 30.3766C30.0217 32.9643 31.3717 36.3395 31.3717 40.5022C31.3717 44.8899 29.8529 48.6589 26.8152 51.809C23.8901 54.9592 20.2336 56.5343 15.8459 56.5343C11.6832 56.5343 8.02673 55.0155 4.87656 51.9778C1.8389 48.8276 0.320068 45.0024 0.320068 40.5022C0.320068 38.7021 0.657587 36.6207 1.33262 34.2581C2.12017 31.8955 3.52649 28.8016 5.5516 24.9764L19.0523 0L31.7093 6.91912ZM69.6801 6.91912L57.3606 29.8704L49.7665 32.0642C50.554 30.3766 51.5103 29.0266 52.6354 28.014C53.8729 26.8889 55.1668 26.3264 56.5168 26.3264C59.7795 26.3264 62.7609 27.6765 65.4611 30.3766C68.1612 32.9643 69.5113 36.3395 69.5113 40.5022C69.5113 44.8899 67.9925 48.6589 64.9548 51.809C62.0296 54.9592 58.3732 56.5343 53.9855 56.5343C49.8227 56.5343 46.1663 55.0155 43.0161 51.9778C39.9785 48.8276 38.4596 45.0024 38.4596 40.5022C38.4596 38.7021 38.7971 36.6207 39.4722 34.2581C40.1472 31.8955 41.4973 28.8016 43.5224 24.9764L57.1919 0L69.6801 6.91912Z" fill="#FC5071"/>
</svg>
