<svg width="104" height="51" viewBox="0 0 104 51" fill="none" xmlns="http://www.w3.org/2000/svg">
<g clip-path="url(#clip0_2004_2185)">
<path d="M101.332 28.3226H100.201V38.8321H101.332V28.3226Z" fill="#181A1E"/>
<path d="M7.85499 28.3226H6.72437V38.8321H7.85499V28.3226Z" fill="#181A1E"/>
<path d="M2.77554 37.9481C2.31941 37.9481 2.02086 37.8301 1.87988 37.5909C1.73889 37.3518 1.66701 37.052 1.66701 36.6864V23.6561H0.599976V36.7276C0.599976 37.4973 0.785188 38.0664 1.15285 38.4292C1.52327 38.7785 2.04851 38.9544 2.7313 38.9544C2.95799 38.9544 3.14319 38.9407 3.28418 38.9131C3.44174 38.8856 3.57719 38.8554 3.69054 38.828V37.9042C3.53573 37.9316 3.39199 37.9456 3.26483 37.9456H2.77554V37.9481Z" fill="#181A1E"/>
<path d="M71.4097 23.5733C71.1526 23.5459 70.8708 23.532 70.5583 23.532C70.0608 23.532 69.6184 23.6091 69.237 23.763C68.8666 23.9168 68.5541 24.1341 68.2971 24.4144C68.0566 24.6812 67.8715 24.9973 67.7443 25.3603C67.6144 25.7093 67.5509 26.0805 67.5509 26.4735V28.3236H65.4193V29.2886H67.5509V38.8305H68.6177V29.2886H71.9654V28.3236H68.6177V26.5174C68.6177 25.1567 69.2924 24.4778 70.6441 24.4778C70.9565 24.4778 71.2328 24.4916 71.4761 24.519C71.7333 24.5464 71.9654 24.5766 72.1783 24.6043V23.6586C71.924 23.6173 71.667 23.5871 71.4125 23.5733H71.4097Z" fill="#181A1E"/>
<path d="M31.6866 29.6068C31.3024 29.1313 30.8268 28.752 30.2573 28.4715C29.7046 28.1913 29.0631 28.0509 28.3388 28.0509C26.8324 28.0509 25.6242 28.6612 24.7149 29.879C24.3029 30.44 24.0238 31.0363 23.8827 31.6659C23.7418 32.2955 23.6698 32.9469 23.6698 33.6204C23.6698 34.4178 23.7831 35.16 24.0098 35.8473C24.2505 36.5208 24.5931 37.109 25.0327 37.6121C25.4169 38.0465 25.8841 38.4037 26.4398 38.6842C26.9927 38.9647 27.6562 39.1048 28.4218 39.1048C29.0327 39.1048 29.594 39.0003 30.1054 38.7888C30.6305 38.5633 31.0867 38.2635 31.4709 37.8843C31.7695 37.6038 32.0238 37.2821 32.2367 36.9193C32.4496 36.54 32.5905 36.1275 32.6625 35.6795H31.5538C31.4821 36.0011 31.3769 36.2816 31.2332 36.5208C31.1061 36.7571 30.9429 36.977 30.7438 37.1722C30.1467 37.7908 29.3699 38.0988 28.419 38.0988C27.8357 38.0988 27.3328 37.9998 26.907 37.8045C26.495 37.6093 26.1412 37.3344 25.8399 36.9853C25.4999 36.5784 25.229 36.1083 25.0299 35.5777C24.8448 35.0308 24.7453 34.4508 24.7315 33.8349H32.8752V33.4995C32.8892 33.3868 32.8973 33.2685 32.8973 33.1421C32.8973 32.4851 32.7896 31.8474 32.5767 31.2315C32.3776 30.6159 32.0792 30.0742 31.681 29.6124L31.6866 29.6068ZM31.8137 32.8644H24.7563C24.7563 32.345 24.842 31.8555 25.0133 31.3938C25.1848 30.932 25.4169 30.525 25.7156 30.176C26.0278 29.8241 26.4038 29.552 26.8462 29.3568C27.2858 29.1478 27.7999 29.0407 28.3388 29.0407C28.878 29.0407 29.3617 29.145 29.7875 29.3568C30.2131 29.5685 30.5753 29.8543 30.8738 30.2171C31.1724 30.5664 31.3991 30.9731 31.5566 31.4349C31.7113 31.8832 31.7971 32.3587 31.8137 32.8644Z" fill="#181A1E"/>
<path d="M79.3773 37.7992C79.0925 37.8568 78.8106 37.9035 78.5258 37.9475C78.2549 37.9751 77.9784 37.9888 77.6938 37.9888C77.34 37.9888 77.0469 37.9393 76.8202 37.8403C76.5935 37.7276 76.4082 37.5819 76.2673 37.4004C76.1402 37.2054 76.049 36.98 75.9908 36.7269C75.9467 36.4631 75.9273 36.1745 75.9273 35.8665V29.2882H79.2308V28.3205H75.9273V25.1672L74.8602 25.4203V28.3205H72.7289V29.2882H74.8602V35.9077C74.8602 36.8177 75.0677 37.5598 75.4795 38.1345C75.9053 38.6953 76.6157 38.9756 77.6108 38.9756C77.9095 38.9756 78.1997 38.9482 78.4844 38.8905C78.7828 38.8492 79.0815 38.7943 79.3799 38.7227V37.7964L79.3773 37.7992Z" fill="#181A1E"/>
<path d="M84.2732 37.9066V37.8652C84.2732 37.3539 83.853 36.9388 83.3335 36.9388C82.8137 36.9388 82.3936 37.3511 82.3936 37.8652V37.9066C82.3936 38.4178 82.8137 38.8329 83.3335 38.8329C83.853 38.8329 84.2732 38.4178 84.2732 37.9066Z" fill="#181A1E"/>
<path d="M58.9042 38.9591C59.3024 38.8601 59.6728 38.72 60.0128 38.5385C60.3557 38.3433 60.6513 38.1041 60.9084 37.8238C61.1795 37.5433 61.3867 37.2135 61.5277 36.8368C61.5277 37.1173 61.5499 37.3839 61.5912 37.634C61.6466 37.8705 61.7406 38.0876 61.8677 38.2856C61.9976 38.4671 62.1661 38.6126 62.379 38.7253C62.6057 38.838 62.8822 38.8931 63.2112 38.8931C63.3412 38.8931 63.4241 38.8875 63.4683 38.8738C63.5097 38.8738 63.5954 38.8601 63.7198 38.8327V37.9117C63.648 37.9254 63.5485 37.931 63.4213 37.931C63.0509 37.931 62.8158 37.832 62.7191 37.6368C62.6335 37.4415 62.5919 37.1613 62.5919 36.7957V32.004C62.5919 31.6522 62.5781 31.3085 62.5478 30.9731C62.5202 30.635 62.44 30.308 62.3127 29.9863C62.1717 29.6233 61.9726 29.321 61.7156 29.0818C61.4613 28.829 61.1683 28.6256 60.842 28.4715C60.5132 28.3177 60.1648 28.2131 59.7971 28.1555C59.4267 28.0839 59.0647 28.0509 58.7107 28.0509C58.1276 28.0509 57.5966 28.1278 57.1129 28.2819C56.6291 28.422 56.2036 28.631 55.8332 28.9115C55.4793 29.1918 55.1863 29.5355 54.9596 29.9422C54.7467 30.3491 54.6196 30.8193 54.5754 31.3498H55.6424C55.7004 30.5664 56.0129 29.9835 56.5822 29.6068C57.1489 29.2275 57.8621 29.0407 58.7135 29.0407C59.5651 29.0407 60.1926 29.222 60.7177 29.5878C61.2568 29.9505 61.5277 30.569 61.5277 31.4377V32.4686L57.6051 32.7408C56.538 32.8123 55.6728 33.1203 55.0038 33.6671C54.3513 34.1977 54.0225 34.9346 54.0225 35.8747C54.0225 36.3806 54.1136 36.834 54.2989 37.241C54.484 37.634 54.7385 37.9695 55.0645 38.2498C55.4046 38.5303 55.7972 38.7418 56.2367 38.8794C56.6927 39.0333 57.1739 39.1104 57.6852 39.1104C58.0972 39.1104 58.5034 39.0609 58.9016 38.9619L58.9042 38.9591ZM55.8579 37.5682C55.3604 37.1887 55.1115 36.6223 55.1115 35.8663C55.1115 35.2233 55.3466 34.7092 55.8138 34.3325C56.2837 33.9395 56.9168 33.7166 57.7128 33.659L61.5277 33.428V33.975C61.5277 34.481 61.4557 34.9839 61.3148 35.4898C61.1739 35.979 60.9528 36.4218 60.6541 36.8148C60.3557 37.208 59.9659 37.5296 59.4821 37.7797C59.0121 38.0188 58.4454 38.1371 57.7764 38.1371C57.0108 38.1371 56.3695 37.9475 55.8579 37.5682Z" fill="#181A1E"/>
<path d="M96.9696 38.8297V37.9089C96.8977 37.9226 96.7983 37.9279 96.671 37.9279C96.3006 37.9279 96.0685 37.829 95.9689 37.634C95.8832 37.4387 95.8418 37.1582 95.8418 36.7927V32.001C95.8418 31.6492 95.828 31.3057 95.7976 30.9703C95.7698 30.6322 95.6897 30.305 95.5626 29.9833C95.4216 29.6205 95.2225 29.3182 94.9654 29.0788C94.7112 28.826 94.4181 28.6226 94.0919 28.4685C93.7631 28.3147 93.4146 28.2103 93.047 28.1525C92.6766 28.0811 92.3144 28.0481 91.9606 28.0481C91.3773 28.0481 90.8465 28.125 90.3628 28.2789C89.879 28.4192 89.4532 28.628 89.0828 28.9085C88.729 29.189 88.4359 29.5325 88.2093 29.9394C87.9966 30.3461 87.8694 30.8162 87.825 31.3468H88.8921C88.9503 30.5634 89.2625 29.9805 89.832 29.604C90.3988 29.2245 91.112 29.0377 91.9634 29.0377C92.8147 29.0377 93.4422 29.2192 93.9676 29.5847C94.5065 29.9475 94.7776 30.5662 94.7776 31.4349V32.4656L90.8549 32.7379C89.7879 32.8093 88.9225 33.1172 88.2536 33.6643C87.5984 34.1949 87.2723 34.9316 87.2723 35.8717C87.2723 36.3776 87.3635 36.8312 87.5486 37.2379C87.7339 37.6312 87.9882 37.9665 88.3144 38.2468C88.6544 38.5273 89.047 38.739 89.4864 38.8764C89.9426 39.0305 90.4235 39.1074 90.9351 39.1074C91.3469 39.1074 91.7533 39.0579 92.1513 38.9589C92.5495 38.8599 92.9199 38.7197 93.2599 38.5382C93.6025 38.343 93.8984 38.1039 94.1555 37.8236C94.4263 37.5431 94.6338 37.2133 94.7748 36.8366C94.7748 37.1171 94.7969 37.3837 94.8383 37.634C94.8937 37.8703 94.9876 38.0874 95.1148 38.2854C95.2447 38.4669 95.4132 38.6126 95.6261 38.7253C95.8528 38.838 96.1321 38.8929 96.4583 38.8929C96.5882 38.8929 96.671 38.8875 96.7154 38.8736C96.7567 38.8736 96.8425 38.8599 96.9668 38.8325L96.9696 38.8297ZM94.5647 35.4868C94.4237 35.9762 94.2024 36.4187 93.904 36.812C93.6053 37.205 93.2155 37.5266 92.7318 37.7769C92.262 38.016 91.6953 38.1341 91.0262 38.1341C90.2604 38.1341 89.6191 37.9445 89.1078 37.5652C88.6103 37.1859 88.3614 36.6195 88.3614 35.8635C88.3614 35.2202 88.5965 34.7062 89.0636 34.3295C89.5334 33.9365 90.1665 33.7138 90.9627 33.656L94.7776 33.4252V33.9722C94.7776 34.478 94.7056 34.9811 94.5647 35.4868Z" fill="#181A1E"/>
<path d="M16.8292 28.0507C16.4587 28.0507 16.0883 28.1057 15.7207 28.2185C15.3502 28.3147 15.0019 28.4632 14.6757 28.6584C14.3634 28.8397 14.0786 29.0651 13.8243 29.3319C13.5672 29.5985 13.3682 29.9008 13.2272 30.2362L13.1001 28.323H12.1602V38.8325H13.2272V33.579C13.2272 33.0182 13.2852 32.474 13.3986 31.9406C13.5257 31.3935 13.7248 30.9097 13.9957 30.4892C14.2804 30.0686 14.6509 29.7332 15.1042 29.4802C15.5603 29.2136 16.1132 29.0816 16.7656 29.0816C17.7469 29.0816 18.4491 29.3319 18.8776 29.8376C19.3033 30.327 19.5161 31.0335 19.5161 31.9599V38.8325H20.5832V31.8967C20.5832 30.7035 20.2625 29.7662 19.624 29.0788C18.9992 28.3916 18.0676 28.0481 16.8319 28.0481L16.8292 28.0507Z" fill="#181A1E"/>
<path d="M51.4402 28.2163C50.6881 28.2163 49.9917 28.406 49.3502 28.7852C48.7255 29.1647 48.2916 29.7172 48.0511 30.4457L47.9239 28.3235H46.984V38.8331H48.0511V33.7886C48.0511 33.2415 48.1008 32.6945 48.2004 32.1502C48.3135 31.6031 48.4988 31.1137 48.7531 30.6793C49.0102 30.245 49.3502 29.8959 49.776 29.6293C50.2156 29.3625 50.7711 29.2307 51.4374 29.2307C51.6087 29.2307 51.7802 29.2361 51.9487 29.2498C52.134 29.2637 52.3109 29.2912 52.4822 29.3351V28.2823C52.3109 28.2547 52.134 28.241 51.9487 28.241C51.7774 28.2272 51.6061 28.2191 51.4374 28.2191L51.4402 28.2163Z" fill="#181A1E"/>
<path d="M42.8113 35.5091C42.6813 36.224 42.3495 36.8342 41.8078 37.3372C41.2827 37.8294 40.6052 38.0739 39.7816 38.0739C38.7725 38.0739 37.9847 37.7799 37.4152 37.1915C36.9314 36.6995 36.6108 36.1468 36.4561 35.5312C36.315 34.9153 36.2432 34.2639 36.2432 33.5765C36.2432 32.8892 36.315 32.246 36.4561 31.644C36.6108 31.0282 36.9314 30.473 37.4152 29.9835C37.6999 29.7032 38.0345 29.486 38.4187 29.3321C38.8167 29.1643 39.2701 29.0792 39.7842 29.0792C40.5942 29.0792 41.2687 29.3184 41.8106 29.7939C42.3495 30.2694 42.6757 30.8715 42.7919 31.6001H43.9003C43.8314 31.0667 43.682 30.5829 43.4526 30.1485C43.2259 29.7142 42.9328 29.343 42.579 29.0351C42.2224 28.7135 41.805 28.469 41.3212 28.2984C40.8513 28.1308 40.3399 28.0455 39.787 28.0455C39.1182 28.0455 38.5211 28.1638 37.9957 28.403C37.4706 28.6284 37.0226 28.9224 36.6522 29.2854C36.0995 29.8325 35.7069 30.4618 35.4802 31.1767C35.2673 31.8776 35.1595 32.675 35.1595 33.5739C35.1595 34.4728 35.2673 35.2755 35.4802 35.9902C35.7069 36.6911 36.0995 37.3153 36.6522 37.8624C37.0226 38.2252 37.4678 38.5275 37.9957 38.7667C38.5211 38.9893 39.1182 39.102 39.787 39.102C40.3427 39.102 40.8541 39.0114 41.3212 38.8299C41.805 38.6486 42.2252 38.3955 42.579 38.0739C42.9494 37.7522 43.2481 37.373 43.4747 36.9386C43.7152 36.4905 43.8727 36.015 43.9447 35.5091H42.8113Z" fill="#181A1E"/>
<path d="M9.71564 17.0738C13.7019 14.7674 22.4704 11.015 37.3953 10.9985C43.4684 10.9985 49.4118 11.7875 55.1563 12.5517C70.2247 14.564 84.4779 16.4636 99.2367 4.48603C99.1759 4.43655 99.1179 4.38431 99.0626 4.32658C98.9216 4.1864 98.8027 4.0242 98.7059 3.85376C84.2209 15.5481 70.1418 13.676 55.2669 11.7132C49.5004 10.949 43.5348 10.16 37.4173 10.16C21.9728 10.16 13.1131 14.0252 9.14343 16.3866C9.20426 16.436 9.26229 16.4883 9.32034 16.5433C9.48068 16.7027 9.6106 16.8786 9.71842 17.0683L9.71564 17.0738Z" fill="#09C4B6"/>
<path d="M9.31752 16.5494C9.26223 16.4945 9.20418 16.4422 9.14061 16.3928C8.70107 16.0381 8.12056 15.8622 7.46539 15.8622C6.71903 15.8622 6.09702 16.1206 5.63814 16.5797C5.18203 17.0388 4.94153 17.6683 4.94153 18.3858C4.94153 19.1033 5.18203 19.7053 5.63814 20.1919C6.11913 20.6785 6.69414 20.9094 7.46539 20.9094C8.23667 20.9094 8.85863 20.651 9.31476 20.1644C9.77087 19.6778 10.0114 19.0758 10.0114 18.3006C10.0114 17.8332 9.90908 17.4291 9.71282 17.0772C9.60777 16.8876 9.4751 16.7116 9.31476 16.5522L9.31752 16.5494Z" fill="#181A1E"/>
<path d="M99.237 4.48641C99.6682 4.84654 100.215 5.04446 100.89 5.04446C101.659 5.04446 102.283 4.78605 102.739 4.29947C103.196 3.81291 103.436 3.15313 103.436 2.43564C103.436 1.71814 103.196 1.1436 102.739 0.687257C102.283 0.228169 101.636 0 100.89 0C100.144 0 99.519 0.258405 99.0629 0.717493C98.6067 1.17658 98.3662 1.80611 98.3662 2.5236C98.3662 3.01843 98.4824 3.47203 98.7062 3.85689C98.8058 4.02733 98.9219 4.18952 99.0629 4.32971C99.118 4.38469 99.1762 4.43694 99.237 4.48916V4.48641Z" fill="#181A1E"/>
<path d="M63.8709 46.4946H63.0223V49.6999H63.8709V46.4946Z" fill="#181A1E"/>
<path d="M90.7495 46.4138C90.2962 46.4138 89.8954 46.6474 89.6631 46.9718V46.4935H89.1627V50.9194H89.6631V49.215C89.9311 49.5668 90.3099 49.7785 90.7495 49.7785C91.5981 49.7785 92.1842 49.1271 92.1842 48.0934C92.1842 47.0597 91.5981 46.4138 90.7495 46.4138ZM90.6224 49.3332C90.2298 49.3332 89.8344 49.0941 89.6603 48.8164V47.3704C89.8344 47.0927 90.227 46.8591 90.6224 46.8591C91.2693 46.8591 91.6563 47.3841 91.6563 48.0934C91.6563 48.8027 91.2693 49.3332 90.6224 49.3332Z" fill="#181A1E"/>
<path d="M87.2626 46.4152C86.7954 46.4152 86.3614 46.7201 86.1817 47.0115C86.0878 46.6789 85.8085 46.4152 85.3219 46.4152C84.8354 46.4152 84.4152 46.7531 84.2743 46.9594V46.4949H83.7739V49.7002H84.2743V47.358C84.4484 47.0996 84.794 46.8604 85.1231 46.8604C85.5486 46.8604 85.7173 47.1189 85.7173 47.5228V49.7002H86.2177V47.3524C86.3836 47.094 86.7374 46.8604 87.0719 46.8604C87.4921 46.8604 87.6662 47.1189 87.6662 47.5228V49.7002H88.1665V47.3854C88.1665 46.7422 87.8541 46.4177 87.2654 46.4177L87.2626 46.4152Z" fill="#181A1E"/>
<path d="M94.2463 46.4138C93.7184 46.4138 93.3064 46.587 92.9582 46.9444L93.1905 47.2879C93.4779 46.9774 93.7902 46.8426 94.1774 46.8426C94.6445 46.8426 94.9899 47.0873 94.9899 47.5133V48.0906C94.7301 47.7992 94.3625 47.659 93.9229 47.659C93.3756 47.659 92.8007 47.9916 92.8007 48.7146C92.8007 49.4376 93.3812 49.7757 93.9229 49.7757C94.3569 49.7757 94.7301 49.6247 94.9899 49.3305V49.696H95.4903V47.494C95.4903 46.719 94.9292 46.4138 94.2435 46.4138H94.2463ZM94.9928 49.0225C94.7992 49.2893 94.4592 49.4211 94.111 49.4211C93.6382 49.4211 93.3092 49.1297 93.3092 48.7174C93.3092 48.3051 93.6354 48.0218 94.111 48.0218C94.4592 48.0218 94.7992 48.1538 94.9928 48.4122V49.0225Z" fill="#181A1E"/>
<path d="M81.3625 46.4152C80.381 46.4152 79.7673 47.1656 79.7673 48.0947C79.7673 49.0239 80.381 49.7799 81.3625 49.7799C82.3438 49.7799 82.9575 49.0239 82.9575 48.0947C82.9575 47.1656 82.3438 46.4152 81.3625 46.4152ZM81.3625 49.3346C80.6741 49.3346 80.2955 48.7517 80.2955 48.0947C80.2955 47.4377 80.6769 46.8604 81.3625 46.8604C82.048 46.8604 82.4296 47.4431 82.4296 48.0947C82.4296 48.7462 82.048 49.3346 81.3625 49.3346Z" fill="#181A1E"/>
<path d="M98.1601 46.4138C97.6736 46.4138 97.2312 46.686 97.0045 46.9581V46.4935H96.5042V49.6988H97.0045V47.3567C97.198 47.0982 97.5658 46.8591 97.9582 46.8591C98.3922 46.8591 98.6852 47.0322 98.6852 47.6014V49.6988H99.1802V47.4501C99.1802 46.7545 98.8262 46.4138 98.1601 46.4138Z" fill="#181A1E"/>
<path d="M101.319 49.1226L100.252 46.4946H99.7045L101.053 49.7329L100.84 50.2168C100.727 50.4806 100.581 50.5549 100.36 50.5549C100.279 50.5549 100.161 50.5356 100.086 50.5026L100.011 50.9535C100.097 50.9809 100.266 51.0002 100.371 51.0002C100.796 50.9946 101.125 50.8133 101.319 50.3488L102.933 46.4946H102.391L101.316 49.1226H101.319Z" fill="#181A1E"/>
<path d="M66.5494 46.4152C66.1568 46.4152 65.803 46.5883 65.5541 46.8988V46.4949H64.7056V50.9207H65.5541V49.2879C65.814 49.6204 66.1678 49.7799 66.5494 49.7799C67.376 49.7799 67.9785 49.164 67.9785 48.0947C67.9785 47.0252 67.3786 46.4152 66.5494 46.4152ZM66.2812 49.0294C66.0075 49.0294 65.6953 48.8644 65.5541 48.6637V47.5284C65.6953 47.3222 66.0075 47.1628 66.2812 47.1628C66.7677 47.1628 67.094 47.5421 67.094 48.0919C67.094 48.6418 66.7677 49.0267 66.2812 49.0267V49.0294Z" fill="#181A1E"/>
<path d="M63.4405 45.1475C63.1669 45.1475 62.9346 45.3673 62.9346 45.645C62.9346 45.9225 63.1669 46.148 63.4405 46.148C63.7142 46.148 63.9465 45.9225 63.9465 45.645C63.9465 45.3673 63.7198 45.1475 63.4405 45.1475Z" fill="#181A1E"/>
<path d="M61.1209 48.6525L60.4132 46.4946H59.6584L58.9508 48.6525L58.3509 46.4946H57.4719L58.4504 49.6999H59.36L60.04 47.5172L60.7201 49.6999H61.6212L62.6025 46.4946H61.7208L61.1209 48.6525Z" fill="#181A1E"/>
<path d="M53.9902 46.4152C53.4623 46.4152 53.0503 46.5883 52.702 46.9455L52.9341 47.2892C53.2218 46.9785 53.534 46.8439 53.921 46.8439C54.3882 46.8439 54.7338 47.0887 54.7338 47.5147V48.0919C54.4739 47.8005 54.1063 47.6604 53.6668 47.6604C53.1194 47.6604 52.5443 47.9929 52.5443 48.7159C52.5443 49.4389 53.125 49.7771 53.6668 49.7771C54.1007 49.7771 54.4739 49.626 54.7338 49.3318V49.6974H55.2342V47.4954C55.2342 46.7203 54.6731 46.4152 53.9874 46.4152H53.9902ZM54.7366 49.0239C54.5431 49.2904 54.2031 49.4224 53.8547 49.4224C53.3821 49.4224 53.0531 49.131 53.0531 48.7187C53.0531 48.3064 53.3793 48.0232 53.8547 48.0232C54.2031 48.0232 54.5431 48.1552 54.7366 48.4136V49.0239Z" fill="#181A1E"/>
<path d="M69.4464 46.9305V46.4935H68.5977V49.6988H69.4464V47.5821C69.5874 47.376 69.9606 47.2165 70.2398 47.2165C70.3338 47.2165 70.4139 47.2219 70.4719 47.2356V46.4138C70.0711 46.4138 69.6703 46.6474 69.4436 46.9305H69.4464Z" fill="#181A1E"/>
<path d="M78.0881 46.8604C78.4228 46.8604 78.6964 46.9785 78.9091 47.2727L79.2437 46.9732C78.9977 46.6543 78.6494 46.4152 78.0633 46.4152C77.1012 46.4152 76.4543 47.1463 76.4543 48.0947C76.4543 49.0432 77.1012 49.7799 78.0633 49.7799C78.6494 49.7799 78.9977 49.5407 79.2437 49.2219L78.9091 48.9167C78.6964 49.2026 78.4228 49.3346 78.0881 49.3346C77.4081 49.3346 76.9741 48.804 76.9741 48.0947C76.9741 47.3854 77.4081 46.8604 78.0881 46.8604Z" fill="#181A1E"/>
<path d="M72.4991 46.4138C71.4377 46.4138 70.7964 47.1835 70.7964 48.0934C70.7964 49.0032 71.4377 49.7785 72.4991 49.7785C73.5606 49.7785 74.2075 49.0088 74.2075 48.0934C74.2075 47.178 73.5662 46.4138 72.4991 46.4138ZM72.4991 49.0281C71.9712 49.0281 71.6781 48.5965 71.6781 48.0934C71.6781 47.5902 71.9712 47.1642 72.4991 47.1642C73.0273 47.1642 73.3257 47.5958 73.3257 48.0934C73.3257 48.591 73.0245 49.0281 72.4991 49.0281Z" fill="#181A1E"/>
</g>
<defs>
<clipPath id="clip0_2004_2185">
<rect width="103" height="51" fill="white" transform="translate(0.599976)"/>
</clipPath>
</defs>
</svg>
